<?xml version="1.0" encoding="UTF-8" standalone="no"?>
<svg
   xmlns:dc="http://purl.org/dc/elements/1.1/"
   xmlns:cc="http://creativecommons.org/ns#"
   xmlns:rdf="http://www.w3.org/1999/02/22-rdf-syntax-ns#"
   xmlns:svg="http://www.w3.org/2000/svg"
   xmlns="http://www.w3.org/2000/svg"
   xmlns:sodipodi="http://sodipodi.sourceforge.net/DTD/sodipodi-0.dtd"
   xmlns:inkscape="http://www.inkscape.org/namespaces/inkscape"
   id="svg2"
   version="1.1"
   xml:space="preserve"
   width="2.6679699in"
   height="2.6679699in"
   viewBox="0 0 240.11729 240.11731"
   sodipodi:docname="course-logo-semester-square-section-003.svg"
   inkscape:version="0.92.3 (2405546, 2018-03-11)"><sodipodi:namedview
   pagecolor="#ffffff"
   bordercolor="#666666"
   borderopacity="1"
   objecttolerance="10"
   gridtolerance="10"
   guidetolerance="10"
   inkscape:pageopacity="0"
   inkscape:pageshadow="2"
   inkscape:window-width="640"
   inkscape:window-height="480"
   id="namedview3982"
   showgrid="false"
   inkscape:zoom="0.92142467"
   inkscape:cx="128.06256"
   inkscape:cy="128.06256"
   inkscape:window-x="0"
   inkscape:window-y="0"
   inkscape:window-maximized="0"
   inkscape:current-layer="svg2" /><metadata
   id="metadata8"><rdf:RDF><cc:Work
       rdf:about=""><dc:format>image/svg+xml</dc:format><dc:type
         rdf:resource="http://purl.org/dc/dcmitype/StillImage" /><dc:title /></cc:Work></rdf:RDF></metadata><defs
   id="defs6">



</defs><g
   id="text14"
   style="font-style:normal;font-weight:600;font-size:110px;font-family:Montserrat;writing-mode:lr-tb;fill:#006633;fill-opacity:1;fill-rule:nonzero;stroke:none;stroke-width:1.25"
   transform="matrix(0.94868329,0,0,1.0540926,0,-15)"
   aria-label="CSI"><path
     id="path16"
     style="stroke-width:1.25"
     d="m 83.456994,126.59813 c 12.65,0 23.429996,-4.51 30.579996,-12.87 l -9.24,-8.8 c -5.609996,6.16 -12.539996,9.13 -20.569996,9.13 -15.95,0 -27.5,-11.22 -27.5,-27.059999 0,-15.84 11.55,-27.06 27.5,-27.06 8.03,0 14.96,2.97 20.569996,9.02 l 9.24,-8.69 c -7.15,-8.36 -17.929996,-12.87 -30.469996,-12.87 -23.65,0 -41.25,16.61 -41.25,39.6 0,22.989999 17.6,39.599999 41.14,39.599999 z"
     inkscape:connector-curvature="0" /><path
     id="path18"
     style="stroke-width:1.25"
     d="m 151.17918,126.59813 c 21.12,0 31.13,-10.56 31.13,-22.88 0,-28.269999 -45.65,-17.599999 -45.65,-33.989999 0,-5.83 4.84,-10.45 16.72,-10.45 6.71,0 14.3,1.98 21.23,6.05 l 4.51,-11.11 c -6.71,-4.4 -16.39,-6.82 -25.63,-6.82 -21.12,0 -31.02,10.56 -31.02,22.99 0,28.6 45.76,17.71 45.76,34.319999 0,5.72 -5.06,10.01 -17.05,10.01 -9.46,0 -19.25,-3.52 -25.41,-8.47 l -4.95,11.11 c 6.38,5.5 18.37,9.24 30.36,9.24 z"
     inkscape:connector-curvature="0" /><path
     id="path20"
     style="stroke-width:1.25"
     d="m 196.48887,125.49813 h 14.3 V 48.498131 h -14.3 z"
     inkscape:connector-curvature="0" /></g>

<g
   id="text18"
   style="font-style:normal;font-weight:600;font-size:110px;font-family:Montserrat;writing-mode:lr-tb;fill:#000000;fill-opacity:1;fill-rule:nonzero;stroke:none;stroke-width:1.25"
   transform="matrix(0.94868329,0,0,1.0540926,1.875,-22.5)"
   aria-label="702"><path
     id="path44"
     style="stroke-width:1.25"
     d="m -1.281929e-4,134.81326 v 25.19 H 13.309872 v -13.09 h 30.25 l -28.93,64.9 h 15.29 l 29.92,-67.43 v -9.57 z"
     inkscape:connector-curvature="0" /><path
     id="path46"
     style="stroke-width:1.25"
     d="m 98.547841,212.91326 c 18.369999,0 32.229999,-14.3 32.229999,-39.6 0,-25.3 -13.86,-39.6 -32.229999,-39.6 -18.26,0 -32.12,14.3 -32.12,39.6 0,25.3 13.86,39.6 32.12,39.6 z m 0,-12.43 c -10.45,0 -17.71,-8.58 -17.71,-27.17 0,-18.59 7.26,-27.17 17.71,-27.17 10.559999,0 17.819999,8.58 17.819999,27.17 0,18.59 -7.26,27.17 -17.819999,27.17 z"
     inkscape:connector-curvature="0" /><path
     id="path48"
     style="stroke-width:1.25"
     d="m 159.3744,199.71326 20.57,-19.58 c 10.67,-10.01 12.76,-16.83 12.76,-24.31 0,-13.64 -10.78,-22.11 -27.5,-22.11 -12.65,0 -23.32,4.73 -29.26,12.76 l 10.01,7.7 c 4.29,-5.5 10.56,-8.03 18.04,-8.03 9.46,0 14.3,4.07 14.3,11.11 0,4.29 -1.32,8.8 -8.8,15.95 l -30.58,29.04 v 9.57 h 56.76 v -12.1 z"
     inkscape:connector-curvature="0" /></g>


</svg>